<?xml version="1.0" encoding="utf-8"?>
<!-- Generated by IcoMoon.io -->
<!DOCTYPE svg PUBLIC "-//W3C//DTD SVG 1.1//EN" "http://www.w3.org/Graphics/SVG/1.1/DTD/svg11.dtd">
<svg version="1.1" xmlns="http://www.w3.org/2000/svg" xmlns:xlink="http://www.w3.org/1999/xlink" width="60" height="60" viewBox="0 0 60 60">
<rect fill="#0" x="0" y="0" width="60" height="60"></rect>
<path fill="#ffffff" d="M47.5 20l-10 10h7.5c0 8.288-6.712 15-15 15-2.538 0-4.913-0.638-7.012-1.737l-3.65 3.65c3.1 1.938 6.738 3.087 10.662 3.087 11.050 0 20-8.95 20-20h7.5l-10-10zM15 30c0-8.288 6.712-15 15-15 2.538 0 4.913 0.637 7.013 1.737l3.65-3.65c-3.1-1.938-6.738-3.087-10.662-3.087-11.050 0-20 8.95-20 20h-7.5l10 10 10-10h-7.5z"></path>
</svg>
