<?xml version="1.0" encoding="utf-8"?>
<!-- Generated by IcoMoon.io -->
<!DOCTYPE svg PUBLIC "-//W3C//DTD SVG 1.1//EN" "http://www.w3.org/Graphics/SVG/1.1/DTD/svg11.dtd">
<svg version="1.1" xmlns="http://www.w3.org/2000/svg" xmlns:xlink="http://www.w3.org/1999/xlink" width="60" height="60" viewBox="0 0 60 60">
<rect fill="#0" x="0" y="0" width="60" height="60"></rect>
<path fill="#ffffff" d="M50.508 22.5c-3.105 0-5.625 2.52-5.625 5.625 0 0.662 0.137 1.284 0.344 1.875h-35.969c-1.035 0-1.875 0.84-1.875 1.875s0.84 1.875 1.875 1.875h41.25c3.105 0 5.625-2.52 5.625-5.625s-2.52-5.625-5.625-5.625zM9.258 26.25h22.5c3.105 0 5.625-2.52 5.625-5.625s-2.52-5.625-5.625-5.625-5.625 2.52-5.625 5.625c0 0.662 0.137 1.284 0.344 1.875h-17.219c-1.035 0-1.875 0.84-1.875 1.875s0.84 1.875 1.875 1.875zM39.258 37.5c-0.11 0-0.215 0.024-0.327 0.034-0.073-0.005-0.134-0.034-0.208-0.034h-28.928c-1.333 0-2.412 0.84-2.412 1.875s1.079 1.875 2.412 1.875h24.182c-0.208 0.591-0.344 1.216-0.344 1.875 0 3.105 2.52 5.625 5.625 5.625s5.625-2.52 5.625-5.625-2.52-5.625-5.625-5.625z"></path>
</svg>
