<?xml version="1.0" encoding="utf-8"?>
<!-- Generated by IcoMoon.io -->
<!DOCTYPE svg PUBLIC "-//W3C//DTD SVG 1.1//EN" "http://www.w3.org/Graphics/SVG/1.1/DTD/svg11.dtd">
<svg version="1.1" xmlns="http://www.w3.org/2000/svg" xmlns:xlink="http://www.w3.org/1999/xlink" width="60" height="60" viewBox="0 0 60 60">
<rect fill="#0" x="0" y="0" width="60" height="60"></rect>
<path fill="#ffffff" d="M44.868 34.248l-3.823-2.207c0.122-0.664 0.205-1.343 0.205-2.041 0-0.701-0.083-1.382-0.21-2.046l3.823-2.209c1.797-1.040 2.407-3.333 1.374-5.12-1.038-1.794-3.325-2.41-5.12-1.377l-3.86 2.229c-1.033-0.879-2.209-1.572-3.508-2.034v-4.443c0-2.070-1.677-3.75-3.75-3.75-2.070 0-3.75 1.68-3.75 3.75v4.441c-1.299 0.461-2.476 1.155-3.508 2.034l-3.853-2.224c-1.794-1.035-4.089-0.422-5.127 1.372-1.033 1.792-0.417 4.084 1.377 5.12l3.816 2.205c-0.124 0.667-0.205 1.35-0.205 2.053 0 0.698 0.081 1.379 0.205 2.044l-3.818 2.205c-1.797 1.035-2.412 3.333-1.374 5.127 1.033 1.787 3.328 2.402 5.124 1.37l3.848-2.224c1.033 0.879 2.212 1.577 3.516 2.041v4.438c0 2.073 1.68 3.75 3.75 3.75 2.073 0 3.75-1.677 3.75-3.75v-4.443c1.304-0.464 2.483-1.157 3.511-2.038l3.857 2.226c1.794 1.033 4.087 0.417 5.12-1.37 1.038-1.794 0.425-4.087-1.369-5.127zM26.25 30c0-2.070 1.677-3.75 3.75-3.75 2.070 0 3.75 1.68 3.75 3.75s-1.68 3.75-3.75 3.75c-2.073 0-3.75-1.68-3.75-3.75z"></path>
</svg>
