<?xml version="1.0" encoding="utf-8"?>
<!-- Generated by IcoMoon.io -->
<!DOCTYPE svg PUBLIC "-//W3C//DTD SVG 1.1//EN" "http://www.w3.org/Graphics/SVG/1.1/DTD/svg11.dtd">
<svg version="1.1" xmlns="http://www.w3.org/2000/svg" xmlns:xlink="http://www.w3.org/1999/xlink" width="60" height="60" viewBox="0 0 60 60">
<rect fill="#0" x="0" y="0" width="60" height="60"></rect>
<path fill="#ffffff" d="M58.008 26.133h-9.565c-0.945-8.413-8.020-15-16.685-15-5.837 0-10.986 2.983-14.019 7.5h-12.231c-1.035 0-1.875 0.84-1.875 1.875s0.84 1.875 1.875 1.875h10.41c-0.425 1.196-0.701 2.449-0.845 3.75h-5.815c-1.035 0-1.875 0.84-1.875 1.875s0.84 1.875 1.875 1.875h5.815c0.144 1.299 0.42 2.556 0.845 3.75h-10.068c-1.225 0-2.217 0.84-2.217 1.875s0.991 1.875 2.217 1.875h11.89c3.032 4.519 8.181 7.5 14.019 7.5s10.986-2.981 14.018-7.5h4.39c1.225 0 2.217-0.84 2.217-1.875s-0.991-1.875-2.217-1.875h-2.568c0.425-1.194 0.698-2.451 0.845-3.75h9.565c1.035 0 1.875-0.84 1.875-1.875s-0.84-1.875-1.875-1.875zM19.949 22.383h11.809c1.035 0 1.875-0.84 1.875-1.875s-0.84-1.875-1.875-1.875h-9.158c2.368-2.312 5.593-3.75 9.158-3.75 6.597 0 12.017 4.907 12.935 11.25h-25.869c0.19-1.326 0.566-2.583 1.125-3.75zM31.758 41.133c-3.564 0-6.79-1.44-9.158-3.75h18.313c-2.366 2.31-5.591 3.75-9.155 3.75zM43.564 33.633h-23.616c-0.559-1.167-0.935-2.424-1.125-3.75h25.869c-0.19 1.326-0.566 2.583-1.128 3.75z"></path>
</svg>
