<?xml version="1.0" encoding="utf-8"?>
<!-- Generated by IcoMoon.io -->
<!DOCTYPE svg PUBLIC "-//W3C//DTD SVG 1.1//EN" "http://www.w3.org/Graphics/SVG/1.1/DTD/svg11.dtd">
<svg version="1.1" xmlns="http://www.w3.org/2000/svg" xmlns:xlink="http://www.w3.org/1999/xlink" width="60" height="60" viewBox="0 0 60 60">
<rect fill="#0" x="0" y="0" width="60" height="60"></rect>
<path fill="#ffffff" d="M13.125 18.75h33.75c1.035 0 1.875-0.84 1.875-1.875s-0.84-1.875-1.875-1.875h-33.75c-1.035 0-1.875 0.84-1.875 1.875s0.84 1.875 1.875 1.875zM46.875 22.5h-33.75c-1.035 0-1.875 0.84-1.875 1.875s0.84 1.875 1.875 1.875h33.75c1.035 0 1.875-0.84 1.875-1.875s-0.84-1.875-1.875-1.875zM46.875 30h-33.75c-1.035 0-1.875 0.84-1.875 1.875s0.84 1.875 1.875 1.875h33.75c1.035 0 1.875-0.84 1.875-1.875s-0.84-1.875-1.875-1.875zM46.875 37.5h-33.75c-1.035 0-1.875 0.84-1.875 1.875s0.84 1.875 1.875 1.875h33.75c1.035 0 1.875-0.84 1.875-1.875s-0.84-1.875-1.875-1.875z"></path>
</svg>
