<?xml version="1.0" encoding="utf-8"?>
<!-- Generated by IcoMoon.io -->
<!DOCTYPE svg PUBLIC "-//W3C//DTD SVG 1.1//EN" "http://www.w3.org/Graphics/SVG/1.1/DTD/svg11.dtd">
<svg version="1.1" xmlns="http://www.w3.org/2000/svg" xmlns:xlink="http://www.w3.org/1999/xlink" width="60" height="60" viewBox="0 0 60 60">
<rect fill="#0" x="0" y="0" width="60" height="60"></rect>
<path fill="#ffffff" d="M46.875 7.5c-0.623 0-1.238 0.044-1.851 0.132-3.501-4.77-9.026-7.632-15.024-7.632s-11.521 2.861-15.024 7.632c-0.613-0.088-1.228-0.132-1.851-0.132-7.236 0-13.125 5.889-13.125 13.125s5.889 13.125 13.125 13.125c1.604 0 3.174-0.293 4.653-0.859 3.393 2.959 7.71 4.609 12.222 4.609 4.517 0 8.828-1.65 12.222-4.609 1.479 0.566 3.049 0.859 4.653 0.859 7.236 0 13.125-5.889 13.125-13.125s-5.889-13.125-13.125-13.125zM46.875 30c-1.138 0-2.251-0.205-3.311-0.61l-2.109-0.811-1.699 1.484c-2.725 2.378-6.189 3.686-9.756 3.686s-7.031-1.309-9.756-3.686l-1.699-1.484-2.109 0.811c-1.055 0.405-2.173 0.61-3.311 0.61-5.171 0-9.375-4.207-9.375-9.375s4.204-9.375 9.375-9.375c0.444 0 0.879 0.032 1.318 0.093l2.222 0.322 1.331-1.811c2.849-3.879 7.224-6.104 12.004-6.104 4.783 0 9.155 2.222 12.002 6.101l1.333 1.814 2.226-0.322c0.435-0.061 0.869-0.093 1.314-0.093 5.171 0 9.375 4.207 9.375 9.375s-4.204 9.375-9.375 9.375zM11.25 37.5c-2.073 0-3.75 1.677-3.75 3.75s1.677 3.75 3.75 3.75 3.75-1.677 3.75-3.75-1.677-3.75-3.75-3.75zM30 41.25c-2.073 0-3.75 1.677-3.75 3.75s1.677 3.75 3.75 3.75 3.75-1.677 3.75-3.75-1.677-3.75-3.75-3.75zM48.75 37.5c-2.073 0-3.75 1.677-3.75 3.75s1.677 3.75 3.75 3.75 3.75-1.677 3.75-3.75-1.677-3.75-3.75-3.75zM41.25 52.5c-2.073 0-3.75 1.677-3.75 3.75s1.677 3.75 3.75 3.75 3.75-1.677 3.75-3.75-1.677-3.75-3.75-3.75zM18.75 52.5c-2.073 0-3.75 1.677-3.75 3.75s1.677 3.75 3.75 3.75 3.75-1.677 3.75-3.75-1.677-3.75-3.75-3.75z"></path>
</svg>
