<?xml version="1.0" encoding="utf-8"?>
<!-- Generated by IcoMoon.io -->
<!DOCTYPE svg PUBLIC "-//W3C//DTD SVG 1.1//EN" "http://www.w3.org/Graphics/SVG/1.1/DTD/svg11.dtd">
<svg version="1.1" xmlns="http://www.w3.org/2000/svg" xmlns:xlink="http://www.w3.org/1999/xlink" width="60" height="60" viewBox="0 0 60 60">
<rect fill="#0" x="0" y="0" width="60" height="60"></rect>
<path fill="#ffffff" d="M38.208 40.745l-2.109-1.216c0.064-0.366 0.112-0.74 0.112-1.128s-0.049-0.762-0.117-1.128l2.114-1.218c0.986-0.576 1.323-1.843 0.757-2.825-0.571-0.994-1.836-1.333-2.827-0.762l-2.131 1.23c-0.572-0.486-1.216-0.867-1.934-1.125v-2.449c0-1.145-0.93-2.073-2.073-2.073s-2.070 0.928-2.070 2.073v2.446c-0.718 0.256-1.365 0.642-1.936 1.128l-2.126-1.23c-0.994-0.571-2.261-0.234-2.832 0.759-0.571 0.986-0.227 2.256 0.762 2.827l2.105 1.216c-0.068 0.369-0.112 0.742-0.112 1.13s0.044 0.762 0.112 1.128l-2.104 1.216c-0.991 0.571-1.333 1.846-0.762 2.835s1.838 1.326 2.827 0.754l2.129-1.223c0.571 0.483 1.218 0.864 1.939 1.121v2.454c0 1.142 0.928 2.065 2.070 2.065s2.073-0.923 2.073-2.065v-2.454c0.718-0.256 1.37-0.637 1.936-1.128l2.129 1.23c0.991 0.571 2.256 0.234 2.827-0.754s0.234-2.256-0.757-2.834zM30 40.474c-1.143 0-2.073-0.93-2.073-2.073s0.93-2.068 2.073-2.068 2.070 0.925 2.070 2.068-0.928 2.073-2.070 2.073zM46.875 7.5c-0.623 0-1.238 0.044-1.851 0.132-3.501-4.77-9.026-7.632-15.024-7.632s-11.521 2.861-15.024 7.632c-0.613-0.088-1.228-0.132-1.851-0.132-7.236 0-13.125 5.889-13.125 13.125s5.889 13.125 13.125 13.125c1.384 0 2.734-0.259 4.036-0.684 0.124-0.596 0.32-1.177 0.63-1.716 0.461-0.803 1.121-1.443 1.875-1.934-0.388-0.378-0.813-0.715-1.157-1.135-1.523 1.074-3.377 1.719-5.383 1.719-5.178 0-9.375-4.197-9.375-9.375s4.197-9.375 9.375-9.375c1.267 0 2.468 0.259 3.567 0.713 2.488-4.853 7.483-8.213 13.308-8.213s10.82 3.359 13.306 8.213c1.101-0.454 2.305-0.713 3.569-0.713 5.178 0 9.375 4.197 9.375 9.375s-4.197 9.375-9.375 9.375c-2.007 0-3.857-0.645-5.383-1.719-0.344 0.42-0.774 0.757-1.16 1.135 0.757 0.493 1.421 1.135 1.88 1.941 0.317 0.544 0.51 1.123 0.635 1.709 1.297 0.425 2.644 0.684 4.028 0.684 7.236 0 13.125-5.889 13.125-13.125s-5.889-13.125-13.125-13.125z"></path>
</svg>
