<?xml version="1.0" encoding="utf-8"?>
<!-- Generated by IcoMoon.io -->
<!DOCTYPE svg PUBLIC "-//W3C//DTD SVG 1.1//EN" "http://www.w3.org/Graphics/SVG/1.1/DTD/svg11.dtd">
<svg version="1.1" xmlns="http://www.w3.org/2000/svg" xmlns:xlink="http://www.w3.org/1999/xlink" width="60" height="60" viewBox="0 0 60 60">
<rect fill="#0" x="0" y="0" width="60" height="60"></rect>
<path fill="#ffffff" d="M18.644 32.654h-0.122l-3.928-5.999-4.797-7.082h-3.721v20.671h4.109v-13.020h0.178l3.411 5.22 5.237 7.8h3.743v-20.671h-4.109v13.081zM24.196 41.504h3.027l7.593-23.008h-3.062l-7.559 23.008zM46.725 19.573h-4.199l-7.263 20.671h4.38l1.35-4.263h7.202l1.26 4.263h4.47l-7.2-20.671zM42.103 32.534l0.837-2.73 1.594-5.371h0.117l1.624 5.461 0.808 2.639h-4.98z"></path>
</svg>
