<?xml version="1.0" encoding="utf-8"?>
<!-- Generated by IcoMoon.io -->
<!DOCTYPE svg PUBLIC "-//W3C//DTD SVG 1.1//EN" "http://www.w3.org/Graphics/SVG/1.1/DTD/svg11.dtd">
<svg version="1.1" xmlns="http://www.w3.org/2000/svg" xmlns:xlink="http://www.w3.org/1999/xlink" width="60" height="60" viewBox="0 0 60 60">
<rect fill="#0" x="0" y="0" width="60" height="60"></rect>
<path fill="#ffffff" d="M30 15v7.5l10-10-10-10v7.5c-11.050 0-20 8.95-20 20 0 3.925 1.15 7.563 3.1 10.65l3.65-3.65c-1.113-2.088-1.75-4.462-1.75-7 0-8.288 6.713-15 15-15zM46.9 19.35l-3.65 3.65c1.113 2.088 1.75 4.462 1.75 7 0 8.288-6.712 15-15 15v-7.5l-10 10 10 10v-7.5c11.050 0 20-8.95 20-20 0-3.925-1.15-7.563-3.1-10.65z"></path>
</svg>
