<?xml version="1.0" encoding="UTF-8" standalone="no"?>
<!-- Created with Inkscape (http://www.inkscape.org/) -->

<svg
   xmlns:dc="http://purl.org/dc/elements/1.1/"
   xmlns:cc="http://creativecommons.org/ns#"
   xmlns:rdf="http://www.w3.org/1999/02/22-rdf-syntax-ns#"
   xmlns:svg="http://www.w3.org/2000/svg"
   xmlns="http://www.w3.org/2000/svg"
   version="1.1"
   width="32"
   height="32"
   viewBox="0 0 32 32"
   id="svg2">
  <metadata
     id="metadata10">
    <rdf:RDF>
      <cc:Work
         rdf:about="">
        <dc:format>image/svg+xml</dc:format>
        <dc:type
           rdf:resource="http://purl.org/dc/dcmitype/StillImage" />
        <dc:title></dc:title>
      </cc:Work>
    </rdf:RDF>
  </metadata>
  <defs
     id="defs8" />
  <rect
     width="32"
     height="32"
     x="1.8101876e-10"
     y="-8.9044924e-08"
     id="rect3755"
     style="fill:#000000;fill-opacity:1" />
  <path
     d="m 13,4 c 0.552,0 1,-0.448 1,-1 V 1 C 14,0.448 13.552,0 13,0 12.448,0 12,0.448 12,1 v 2 c 0,0.552 0.448,1 1,1 z m 7.777,2.635 1.414,-1.414 c 0.391,-0.391 0.391,-1.023 0,-1.414 -0.391,-0.391 -1.023,-0.391 -1.414,0 l -1.414,1.414 c -0.391,0.391 -0.391,1.023 0,1.414 0.391,0.391 1.023,0.391 1.414,0 z M 1,14 H 3 C 3.552,14 4,13.552 4,13 4,12.448 3.552,12 3,12 H 1 c -0.552,0 -1,0.448 -1,1 0,0.552 0.448,1 1,1 z m 21,-1 c 0,0.552 0.448,1 1,1 h 2 c 0.552,0 1,-0.448 1,-1 0,-0.552 -0.448,-1 -1,-1 h -2 c -0.552,0 -1,0.448 -1,1 z M 5.221,6.635 c 0.391,0.391 1.024,0.391 1.414,0 0.39,-0.391 0.391,-1.023 0,-1.414 L 5.221,3.807 C 4.83,3.416 4.198,3.416 3.807,3.807 3.416,4.198 3.416,4.83 3.807,5.221 L 5.221,6.635 z M 25,16 c -0.332,0 -0.66,0.023 -0.987,0.07 C 22.965,14.64 21.568,13.549 19.984,12.851 19.903,9.062 16.808,5.999 13,5.999 c -3.859,0 -7,3.141 -7,7 0,1.09 0.271,2.109 0.719,3.027 C 2.992,16.178 0,19.237 0,22.999 c 0,3.859 3.141,7 7,7 0.856,0 1.693,-0.156 2.482,-0.458 1.81,1.578 4.112,2.458 6.518,2.458 2.409,0 4.708,-0.88 6.518,-2.458 0.789,0.302 1.626,0.458 2.482,0.458 3.859,0 7,-3.141 7,-7 0,-3.859 -3.141,-7 -7,-7 z M 13,8 c 2.488,0 4.535,1.823 4.919,4.203 C 17.293,12.078 16.653,12 16,12 13.129,12 10.469,13.238 8.602,15.328 8.231,14.63 8,13.846 8,13 8,10.238 10.238,8 13,8 z M 25,28 C 23.93,28 22.943,27.656 22.129,27.083 20.662,28.851 18.477,30 16,30 13.523,30 11.338,28.852 9.871,27.083 9.058,27.656 8.07,28 7,28 4.238,28 2,25.762 2,23 c 0,-2.762 2.238,-5 5,-5 0.484,0 0.941,0.091 1.383,0.221 0.176,0.049 0.354,0.089 0.52,0.158 C 9.176,17.844 9.52,17.354 9.902,16.895 11.363,15.137 13.536,14 16.001,14 c 0.633,0 1.24,0.091 1.828,0.232 0.66,0.156 1.284,0.393 1.865,0.706 1.456,0.773 2.651,1.971 3.404,3.441 C 23.685,18.137 24.327,18 25.002,18 c 2.762,0 5,2.238 5,5 0,2.762 -2.238,5 -5,5 z"
     id="path4"
     style="fill:#ffffff;fill-opacity:1" />
</svg>
